<svg width="77" height="66" viewBox="0 0 77 66" fill="none" xmlns="http://www.w3.org/2000/svg">
<path d="M76.4375 33L57.3242 66H19.1133L0 33L19.1133 0H57.3242L76.4375 33Z" fill="#F14B2C"/>
<path d="M19.1836 61.0781L4.31641 35.4062C3.45703 33.9258 3.45703 32.0938 4.31641 30.5977L19.1836 4.92578C20.043 3.44531 21.625 2.52344 23.3633 2.52344H53.0938C54.8125 2.52344 56.3984 3.42969 57.2734 4.92578L72.1406 30.5977C73 32.0781 73 33.9102 72.1406 35.4062L57.2734 61.0781C56.4141 62.5586 54.832 63.4805 53.0938 63.4805H23.3438C21.625 63.4805 20.043 62.5586 19.1836 61.0781Z" fill="#F14B2C"/>
<path d="M71.332 31.0703L56.4492 5.39453C55.7578 4.20313 54.4609 3.46484 53.0781 3.46484H23.3438C21.9648 3.46484 20.6641 4.20313 19.9727 5.39453L5.10938 31.0703C4.75391 31.6758 4.58594 32.3477 4.58594 33C4.58594 33.6562 4.75391 34.3477 5.10938 34.9336L19.9727 60.6094C20.6641 61.8008 21.9648 62.5391 23.3438 62.5391H53.0781C54.4609 62.5391 55.7578 61.8008 56.4492 60.6094L71.332 34.9336C71.668 34.3477 71.8359 33.6758 71.8359 33C71.8359 32.3281 71.668 31.6563 71.332 31.0703ZM71.1797 34.8516L56.3125 60.5234C55.6562 61.668 54.4102 62.3711 53.0938 62.3711H23.3438C22.0117 62.3711 20.7812 61.668 20.125 60.5234L5.25781 34.8516C4.92187 34.2773 4.76953 33.6406 4.76953 33C4.76953 32.3633 4.9375 31.7266 5.25781 31.1523L20.125 5.48047C20.7812 4.33594 22.0312 3.63281 23.3438 3.63281H53.0781C54.4102 3.63281 55.6406 4.33594 56.2969 5.48047L71.1797 31.1523C71.5156 31.7266 71.668 32.3633 71.668 33C71.668 33.6406 71.5 34.2773 71.1797 34.8516Z" fill="#F14B2C"/>
<path d="M43.957 23.9453V13.0156H32.0352V23.9453L37.9961 29.9102L43.957 23.9453ZM29.0508 26.9258H18.1211V38.8516H29.0508L35.0156 32.8906L29.0508 26.9258ZM32.0352 41.832V52.7656H43.957V41.832L37.9961 35.8711L32.0352 41.832ZM46.9414 26.9258L40.9766 32.8906L46.9414 38.8516H57.8711V26.9258H46.9414Z" fill="white"/>
</svg>
