<svg width="196" height="79" viewBox="0 0 196 79" fill="none" xmlns="http://www.w3.org/2000/svg">
<path d="M76.4375 43L57.3242 76H19.1133L0 43L19.1133 10H57.3242L76.4375 43Z" fill="#F14B2C"/>
<path d="M19.1836 71.0781L4.31641 45.4062C3.45703 43.9258 3.45703 42.0938 4.31641 40.5977L19.1836 14.9258C20.043 13.4453 21.625 12.5234 23.3633 12.5234H53.0938C54.8125 12.5234 56.3984 13.4297 57.2734 14.9258L72.1406 40.5977C73 42.0781 73 43.9102 72.1406 45.4062L57.2734 71.0781C56.4141 72.5586 54.832 73.4805 53.0938 73.4805H23.3438C21.625 73.4805 20.043 72.5586 19.1836 71.0781Z" fill="#F14B2C"/>
<path d="M71.332 41.0703L56.4492 15.3945C55.7578 14.2031 54.4609 13.4648 53.0781 13.4648H23.3438C21.9648 13.4648 20.6641 14.2031 19.9727 15.3945L5.10938 41.0703C4.75391 41.6758 4.58594 42.3477 4.58594 43C4.58594 43.6562 4.75391 44.3477 5.10938 44.9336L19.9727 70.6094C20.6641 71.8008 21.9648 72.5391 23.3438 72.5391H53.0781C54.4609 72.5391 55.7578 71.8008 56.4492 70.6094L71.332 44.9336C71.668 44.3477 71.8359 43.6758 71.8359 43C71.8359 42.3281 71.668 41.6563 71.332 41.0703ZM71.1797 44.8516L56.3125 70.5234C55.6562 71.668 54.4102 72.3711 53.0938 72.3711H23.3438C22.0117 72.3711 20.7812 71.668 20.125 70.5234L5.25781 44.8516C4.92187 44.2773 4.76953 43.6406 4.76953 43C4.76953 42.3633 4.9375 41.7266 5.25781 41.1523L20.125 15.4805C20.7812 14.3359 22.0312 13.6328 23.3438 13.6328H53.0781C54.4102 13.6328 55.6406 14.3359 56.2969 15.4805L71.1797 41.1523C71.5156 41.7266 71.668 42.3633 71.668 43C71.668 43.6406 71.5 44.2773 71.1797 44.8516Z" fill="#F14B2C"/>
<path d="M43.957 33.9453V23.0156H32.0352V33.9453L37.9961 39.9102L43.957 33.9453ZM29.0508 36.9258H18.1211V48.8516H29.0508L35.0156 42.8906L29.0508 36.9258ZM32.0352 51.832V62.7656H43.957V51.832L37.9961 45.8711L32.0352 51.832ZM46.9414 36.9258L40.9766 42.8906L46.9414 48.8516H57.8711V36.9258H46.9414Z" fill="white"/>
<path d="M100.84 18.6C100.46 17.9 99.91 17.37 99.19 17.01C98.49 16.63 97.66 16.44 96.7 16.44C95.04 16.44 93.71 16.99 92.71 18.09C91.71 19.17 91.21 20.62 91.21 22.44C91.21 24.38 91.73 25.9 92.77 27C93.83 28.08 95.28 28.62 97.12 28.62C98.38 28.62 99.44 28.3 100.3 27.66C101.18 27.02 101.82 26.1 102.22 24.9H95.71V21.12H106.87V25.89C106.49 27.17 105.84 28.36 104.92 29.46C104.02 30.56 102.87 31.45 101.47 32.13C100.07 32.81 98.49 33.15 96.73 33.15C94.65 33.15 92.79 32.7 91.15 31.8C89.53 30.88 88.26 29.61 87.34 27.99C86.44 26.37 85.99 24.52 85.99 22.44C85.99 20.36 86.44 18.51 87.34 16.89C88.26 15.25 89.53 13.98 91.15 13.08C92.77 12.16 94.62 11.7 96.7 11.7C99.22 11.7 101.34 12.31 103.06 13.53C104.8 14.75 105.95 16.44 106.51 18.6H100.84ZM122.822 29.28H114.962L113.702 33H108.332L115.952 11.94H121.892L129.512 33H124.082L122.822 29.28ZM121.502 25.32L118.892 17.61L116.312 25.32H121.502ZM155.681 11.94V33H150.551V20.37L145.841 33H141.701L136.961 20.34V33H131.831V11.94H137.891L143.801 26.52L149.651 11.94H155.681ZM164.5 16.05V20.31H171.37V24.27H164.5V28.89H172.27V33H159.37V11.94H172.27V16.05H164.5Z" fill="black"/>
<path d="M85.99 50.44C85.99 48.36 86.44 46.51 87.34 44.89C88.24 43.25 89.49 41.98 91.09 41.08C92.71 40.16 94.54 39.7 96.58 39.7C99.08 39.7 101.22 40.36 103 41.68C104.78 43 105.97 44.8 106.57 47.08H100.93C100.51 46.2 99.91 45.53 99.13 45.07C98.37 44.61 97.5 44.38 96.52 44.38C94.94 44.38 93.66 44.93 92.68 46.03C91.7 47.13 91.21 48.6 91.21 50.44C91.21 52.28 91.7 53.75 92.68 54.85C93.66 55.95 94.94 56.5 96.52 56.5C97.5 56.5 98.37 56.27 99.13 55.81C99.91 55.35 100.51 54.68 100.93 53.8H106.57C105.97 56.08 104.78 57.88 103 59.2C101.22 60.5 99.08 61.15 96.58 61.15C94.54 61.15 92.71 60.7 91.09 59.8C89.49 58.88 88.24 57.61 87.34 55.99C86.44 54.37 85.99 52.52 85.99 50.44ZM127.952 39.94V61H122.822V52.33H114.842V61H109.712V39.94H114.842V48.19H122.822V39.94H127.952ZM136.785 44.05V48.31H143.655V52.27H136.785V56.89H144.555V61H131.655V39.94H144.555V44.05H136.785ZM147.015 50.44C147.015 48.36 147.465 46.51 148.365 44.89C149.265 43.25 150.515 41.98 152.115 41.08C153.735 40.16 155.565 39.7 157.605 39.7C160.105 39.7 162.245 40.36 164.025 41.68C165.805 43 166.995 44.8 167.595 47.08H161.955C161.535 46.2 160.935 45.53 160.155 45.07C159.395 44.61 158.525 44.38 157.545 44.38C155.965 44.38 154.685 44.93 153.705 46.03C152.725 47.13 152.235 48.6 152.235 50.44C152.235 52.28 152.725 53.75 153.705 54.85C154.685 55.95 155.965 56.5 157.545 56.5C158.525 56.5 159.395 56.27 160.155 55.81C160.935 55.35 161.535 54.68 161.955 53.8H167.595C166.995 56.08 165.805 57.88 164.025 59.2C162.245 60.5 160.105 61.15 157.605 61.15C155.565 61.15 153.735 60.7 152.115 59.8C150.515 58.88 149.265 57.61 148.365 55.99C147.465 54.37 147.015 52.52 147.015 50.44ZM182.947 61L175.867 51.7V61H170.737V39.94H175.867V49.18L182.887 39.94H188.917L180.757 50.26L189.217 61H182.947Z" fill="black"/>
<path d="M86.104 76C85.9493 76 85.8267 75.9573 85.736 75.872C85.6507 75.7867 85.608 75.6667 85.608 75.512V70.848C85.608 70.6933 85.6507 70.5733 85.736 70.488C85.8267 70.4027 85.9493 70.36 86.104 70.36H87.688C88.6107 70.36 89.3253 70.608 89.832 71.104C90.344 71.5947 90.6 72.2853 90.6 73.176C90.6 74.072 90.344 74.768 89.832 75.264C89.3253 75.7547 88.6107 76 87.688 76H86.104ZM87.624 75.16C88.92 75.16 89.568 74.4987 89.568 73.176C89.568 71.8587 88.92 71.2 87.624 71.2H86.64V75.16H87.624ZM92.8073 76.048C92.6526 76.048 92.5273 76 92.4313 75.904C92.3406 75.808 92.2953 75.6827 92.2953 75.528V70.832C92.2953 70.6773 92.3406 70.5547 92.4313 70.464C92.5273 70.368 92.6526 70.32 92.8073 70.32C92.9673 70.32 93.0926 70.368 93.1833 70.464C93.2793 70.5547 93.3273 70.6773 93.3273 70.832V75.528C93.3273 75.6827 93.2793 75.808 93.1833 75.904C93.0926 76 92.9673 76.048 92.8073 76.048ZM97.1533 76.072C96.7426 76.072 96.3533 76.0187 95.9853 75.912C95.6226 75.8 95.3266 75.6507 95.0973 75.464C94.9746 75.3733 94.9133 75.2453 94.9133 75.08C94.9133 74.968 94.9453 74.872 95.0093 74.792C95.0786 74.7067 95.1586 74.664 95.2493 74.664C95.3453 74.664 95.4546 74.7013 95.5773 74.776C95.8066 74.9413 96.0466 75.0613 96.2973 75.136C96.5479 75.2107 96.8253 75.248 97.1293 75.248C97.5186 75.248 97.8173 75.1813 98.0253 75.048C98.2333 74.9093 98.3373 74.7093 98.3373 74.448C98.3373 74.2453 98.2386 74.0907 98.0413 73.984C97.8493 73.872 97.5266 73.7653 97.0733 73.664C96.6039 73.5627 96.2226 73.4453 95.9293 73.312C95.6359 73.1787 95.4146 73.008 95.2653 72.8C95.1159 72.592 95.0413 72.328 95.0413 72.008C95.0413 71.6773 95.1346 71.3813 95.3213 71.12C95.5079 70.8587 95.7666 70.656 96.0973 70.512C96.4333 70.3627 96.8093 70.288 97.2253 70.288C97.9879 70.288 98.6093 70.4907 99.0893 70.896C99.1586 70.9547 99.2066 71.0133 99.2333 71.072C99.2653 71.1253 99.2813 71.1947 99.2813 71.28C99.2813 71.392 99.2466 71.4907 99.1773 71.576C99.1133 71.656 99.0359 71.696 98.9453 71.696C98.8919 71.696 98.8413 71.688 98.7933 71.672C98.7506 71.656 98.6919 71.6267 98.6173 71.584C98.3986 71.424 98.1853 71.3067 97.9773 71.232C97.7746 71.152 97.5239 71.112 97.2253 71.112C96.8626 71.112 96.5746 71.1867 96.3613 71.336C96.1533 71.48 96.0493 71.6827 96.0493 71.944C96.0493 72.1627 96.1426 72.3307 96.3293 72.448C96.5159 72.5653 96.8333 72.6747 97.2813 72.776C97.7559 72.8827 98.1399 73.0027 98.4333 73.136C98.7319 73.264 98.9586 73.4293 99.1133 73.632C99.2733 73.8347 99.3533 74.088 99.3533 74.392C99.3533 74.7227 99.2599 75.016 99.0733 75.272C98.8919 75.5227 98.6333 75.72 98.2973 75.864C97.9666 76.0027 97.5853 76.072 97.1533 76.072ZM103.479 76.072C102.935 76.072 102.457 75.9547 102.047 75.72C101.641 75.4853 101.329 75.1493 101.111 74.712C100.892 74.2747 100.783 73.7627 100.783 73.176C100.783 72.5893 100.892 72.08 101.111 71.648C101.329 71.2107 101.641 70.8747 102.047 70.64C102.457 70.4053 102.935 70.288 103.479 70.288C103.831 70.288 104.161 70.3413 104.471 70.448C104.78 70.5493 105.055 70.6987 105.295 70.896C105.364 70.9493 105.412 71.0053 105.439 71.064C105.465 71.1227 105.479 71.1947 105.479 71.28C105.479 71.3973 105.447 71.496 105.383 71.576C105.319 71.656 105.241 71.696 105.151 71.696C105.044 71.696 104.935 71.6587 104.823 71.584C104.593 71.4133 104.38 71.296 104.183 71.232C103.985 71.1627 103.767 71.128 103.527 71.128C102.972 71.128 102.551 71.3013 102.263 71.648C101.98 71.9947 101.839 72.504 101.839 73.176C101.839 73.8533 101.98 74.3653 102.263 74.712C102.551 75.0587 102.972 75.232 103.527 75.232C103.756 75.232 103.967 75.1973 104.159 75.128C104.356 75.0587 104.577 74.9413 104.823 74.776C104.876 74.744 104.929 74.7173 104.983 74.696C105.036 74.6747 105.092 74.664 105.151 74.664C105.241 74.664 105.319 74.704 105.383 74.784C105.447 74.864 105.479 74.9627 105.479 75.08C105.479 75.16 105.465 75.232 105.439 75.296C105.412 75.3547 105.364 75.4107 105.295 75.464C105.055 75.6613 104.78 75.8133 104.471 75.92C104.161 76.0213 103.831 76.072 103.479 76.072ZM109.447 76.072C108.898 76.072 108.42 75.9547 108.015 75.72C107.615 75.4853 107.306 75.1493 107.087 74.712C106.868 74.2747 106.759 73.7627 106.759 73.176C106.759 72.5893 106.866 72.08 107.079 71.648C107.298 71.2107 107.61 70.8747 108.015 70.64C108.42 70.4053 108.898 70.288 109.447 70.288C109.996 70.288 110.471 70.4053 110.871 70.64C111.276 70.8747 111.586 71.2107 111.799 71.648C112.018 72.08 112.127 72.5893 112.127 73.176C112.127 73.7627 112.018 74.2747 111.799 74.712C111.58 75.1493 111.268 75.4853 110.863 75.72C110.463 75.9547 109.991 76.072 109.447 76.072ZM109.447 75.248C109.964 75.248 110.367 75.0693 110.655 74.712C110.948 74.3547 111.095 73.8427 111.095 73.176C111.095 72.5093 110.948 72 110.655 71.648C110.367 71.2907 109.964 71.112 109.447 71.112C108.924 71.112 108.516 71.2907 108.223 71.648C107.935 72 107.791 72.5093 107.791 73.176C107.791 73.8427 107.935 74.3547 108.223 74.712C108.516 75.0693 108.924 75.248 109.447 75.248ZM117.789 70.584C117.874 70.4027 118.016 70.312 118.213 70.312C118.346 70.312 118.466 70.3547 118.573 70.44C118.68 70.5253 118.733 70.632 118.733 70.76C118.733 70.8187 118.717 70.8853 118.685 70.96L116.469 75.728C116.421 75.8293 116.346 75.9093 116.245 75.968C116.149 76.0213 116.045 76.048 115.933 76.048C115.821 76.048 115.714 76.0213 115.613 75.968C115.517 75.9093 115.445 75.8293 115.397 75.728L113.189 70.96C113.157 70.8853 113.141 70.8213 113.141 70.768C113.141 70.6347 113.194 70.5253 113.301 70.44C113.413 70.3547 113.538 70.312 113.677 70.312C113.768 70.312 113.85 70.336 113.925 70.384C114.005 70.4267 114.066 70.4933 114.109 70.584L115.949 74.672L117.789 70.584ZM120.548 76C120.393 76 120.27 75.9573 120.18 75.872C120.094 75.7867 120.052 75.6667 120.052 75.512V70.848C120.052 70.6933 120.094 70.5733 120.18 70.488C120.27 70.4027 120.393 70.36 120.548 70.36H123.436C123.59 70.36 123.71 70.3947 123.796 70.464C123.881 70.5333 123.924 70.632 123.924 70.76C123.924 70.8933 123.881 70.9973 123.796 71.072C123.71 71.1413 123.59 71.176 123.436 71.176H121.06V72.728H123.276C123.43 72.728 123.55 72.7627 123.636 72.832C123.721 72.9013 123.764 73.0027 123.764 73.136C123.764 73.264 123.721 73.3627 123.636 73.432C123.55 73.5013 123.43 73.536 123.276 73.536H121.06V75.184H123.436C123.59 75.184 123.71 75.2213 123.796 75.296C123.881 75.3653 123.924 75.4667 123.924 75.6C123.924 75.728 123.881 75.8267 123.796 75.896C123.71 75.9653 123.59 76 123.436 76H120.548ZM129.931 75.352C129.995 75.448 130.027 75.5413 130.027 75.632C130.027 75.7547 129.976 75.856 129.875 75.936C129.779 76.016 129.664 76.056 129.531 76.056C129.445 76.056 129.363 76.0373 129.283 76C129.208 75.9573 129.144 75.896 129.091 75.816L128.027 74.2C127.92 74.0293 127.805 73.9093 127.683 73.84C127.565 73.7707 127.411 73.736 127.219 73.736H126.435V75.528C126.435 75.688 126.389 75.816 126.299 75.912C126.208 76.0027 126.085 76.048 125.931 76.048C125.776 76.048 125.651 76.0027 125.555 75.912C125.464 75.816 125.419 75.688 125.419 75.528V70.848C125.419 70.6933 125.461 70.5733 125.547 70.488C125.637 70.4027 125.76 70.36 125.915 70.36H127.915C128.555 70.36 129.04 70.504 129.371 70.792C129.707 71.0747 129.875 71.4853 129.875 72.024C129.875 72.4613 129.749 72.8213 129.499 73.104C129.253 73.3813 128.904 73.56 128.451 73.64C128.605 73.6773 128.741 73.744 128.859 73.84C128.976 73.936 129.091 74.0693 129.203 74.24L129.931 75.352ZM127.771 72.944C128.16 72.944 128.445 72.872 128.627 72.728C128.808 72.5787 128.899 72.352 128.899 72.048C128.899 71.7387 128.808 71.5147 128.627 71.376C128.445 71.232 128.16 71.16 127.771 71.16H126.427V72.944H127.771ZM138.569 70.584C138.654 70.4027 138.796 70.312 138.993 70.312C139.126 70.312 139.246 70.3547 139.353 70.44C139.46 70.5253 139.513 70.632 139.513 70.76C139.513 70.8187 139.497 70.8853 139.465 70.96L137.249 75.728C137.201 75.8293 137.126 75.9093 137.025 75.968C136.929 76.0213 136.825 76.048 136.713 76.048C136.601 76.048 136.494 76.0213 136.393 75.968C136.297 75.9093 136.225 75.8293 136.177 75.728L133.969 70.96C133.937 70.8853 133.921 70.8213 133.921 70.768C133.921 70.6347 133.974 70.5253 134.081 70.44C134.193 70.3547 134.318 70.312 134.457 70.312C134.548 70.312 134.63 70.336 134.705 70.384C134.785 70.4267 134.846 70.4933 134.889 70.584L136.729 74.672L138.569 70.584ZM141.344 76.048C141.189 76.048 141.064 76 140.968 75.904C140.877 75.808 140.832 75.6827 140.832 75.528V70.832C140.832 70.6773 140.877 70.5547 140.968 70.464C141.064 70.368 141.189 70.32 141.344 70.32C141.504 70.32 141.629 70.368 141.72 70.464C141.816 70.5547 141.864 70.6773 141.864 70.832V75.528C141.864 75.6827 141.816 75.808 141.72 75.904C141.629 76 141.504 76.048 141.344 76.048ZM144.234 76C144.079 76 143.957 75.9573 143.866 75.872C143.781 75.7867 143.738 75.6667 143.738 75.512V70.848C143.738 70.6933 143.781 70.5733 143.866 70.488C143.957 70.4027 144.079 70.36 144.234 70.36H145.818C146.741 70.36 147.455 70.608 147.962 71.104C148.474 71.5947 148.73 72.2853 148.73 73.176C148.73 74.072 148.474 74.768 147.962 75.264C147.455 75.7547 146.741 76 145.818 76H144.234ZM145.754 75.16C147.05 75.16 147.698 74.4987 147.698 73.176C147.698 71.8587 147.05 71.2 145.754 71.2H144.77V75.16H145.754ZM150.921 76C150.767 76 150.644 75.9573 150.553 75.872C150.468 75.7867 150.425 75.6667 150.425 75.512V70.848C150.425 70.6933 150.468 70.5733 150.553 70.488C150.644 70.4027 150.767 70.36 150.921 70.36H153.809C153.964 70.36 154.084 70.3947 154.169 70.464C154.255 70.5333 154.297 70.632 154.297 70.76C154.297 70.8933 154.255 70.9973 154.169 71.072C154.084 71.1413 153.964 71.176 153.809 71.176H151.433V72.728H153.649C153.804 72.728 153.924 72.7627 154.009 72.832C154.095 72.9013 154.137 73.0027 154.137 73.136C154.137 73.264 154.095 73.3627 154.009 73.432C153.924 73.5013 153.804 73.536 153.649 73.536H151.433V75.184H153.809C153.964 75.184 154.084 75.2213 154.169 75.296C154.255 75.3653 154.297 75.4667 154.297 75.6C154.297 75.728 154.255 75.8267 154.169 75.896C154.084 75.9653 153.964 76 153.809 76H150.921ZM158.289 76.072C157.739 76.072 157.262 75.9547 156.857 75.72C156.457 75.4853 156.147 75.1493 155.929 74.712C155.71 74.2747 155.601 73.7627 155.601 73.176C155.601 72.5893 155.707 72.08 155.921 71.648C156.139 71.2107 156.451 70.8747 156.857 70.64C157.262 70.4053 157.739 70.288 158.289 70.288C158.838 70.288 159.313 70.4053 159.713 70.64C160.118 70.8747 160.427 71.2107 160.641 71.648C160.859 72.08 160.969 72.5893 160.969 73.176C160.969 73.7627 160.859 74.2747 160.641 74.712C160.422 75.1493 160.11 75.4853 159.705 75.72C159.305 75.9547 158.833 76.072 158.289 76.072ZM158.289 75.248C158.806 75.248 159.209 75.0693 159.497 74.712C159.79 74.3547 159.937 73.8427 159.937 73.176C159.937 72.5093 159.79 72 159.497 71.648C159.209 71.2907 158.806 71.112 158.289 71.112C157.766 71.112 157.358 71.2907 157.065 71.648C156.777 72 156.633 72.5093 156.633 73.176C156.633 73.8427 156.777 74.3547 157.065 74.712C157.358 75.0693 157.766 75.248 158.289 75.248ZM169.791 72.952C169.914 72.952 170.012 72.9893 170.087 73.064C170.162 73.1333 170.199 73.2267 170.199 73.344V75.064C170.199 75.3093 170.167 75.4827 170.103 75.584C170.039 75.6853 169.908 75.768 169.711 75.832C169.498 75.9067 169.25 75.9653 168.967 76.008C168.684 76.0507 168.412 76.072 168.151 76.072C167.57 76.072 167.066 75.9573 166.639 75.728C166.212 75.4987 165.884 75.168 165.655 74.736C165.431 74.2987 165.319 73.7787 165.319 73.176C165.319 72.584 165.431 72.072 165.655 71.64C165.884 71.2027 166.207 70.8693 166.623 70.64C167.039 70.4053 167.53 70.288 168.095 70.288C168.847 70.288 169.463 70.4907 169.943 70.896C170.007 70.9547 170.052 71.0133 170.079 71.072C170.111 71.1307 170.127 71.2 170.127 71.28C170.127 71.3973 170.095 71.496 170.031 71.576C169.967 71.656 169.89 71.696 169.799 71.696C169.74 71.696 169.687 71.688 169.639 71.672C169.591 71.6507 169.535 71.6187 169.471 71.576C169.236 71.4107 169.018 71.296 168.815 71.232C168.612 71.1627 168.383 71.128 168.127 71.128C167.546 71.128 167.106 71.3013 166.807 71.648C166.514 71.9893 166.367 72.4987 166.367 73.176C166.367 74.5627 166.975 75.256 168.191 75.256C168.554 75.256 168.916 75.2053 169.279 75.104V73.688H168.375C168.247 73.688 168.146 73.656 168.071 73.592C168.002 73.528 167.967 73.4373 167.967 73.32C167.967 73.2027 168.002 73.112 168.071 73.048C168.146 72.984 168.247 72.952 168.375 72.952H169.791ZM177.13 75.384C177.162 75.4533 177.178 75.5227 177.178 75.592C177.178 75.7147 177.127 75.8187 177.026 75.904C176.93 75.9893 176.818 76.032 176.69 76.032C176.605 76.032 176.525 76.0107 176.45 75.968C176.375 75.92 176.317 75.848 176.274 75.752L175.794 74.68H172.978L172.498 75.752C172.455 75.848 172.397 75.92 172.322 75.968C172.247 76.0107 172.165 76.032 172.074 76.032C171.951 76.032 171.839 75.9893 171.738 75.904C171.637 75.8187 171.586 75.7147 171.586 75.592C171.586 75.5227 171.602 75.4533 171.634 75.384L173.842 70.64C173.89 70.5333 173.962 70.4533 174.058 70.4C174.159 70.3413 174.266 70.312 174.378 70.312C174.49 70.312 174.594 70.3413 174.69 70.4C174.791 70.4533 174.866 70.5333 174.914 70.64L177.13 75.384ZM173.33 73.88H175.442L174.386 71.504L173.33 73.88ZM183.62 70.32C183.769 70.32 183.889 70.368 183.98 70.464C184.07 70.5547 184.116 70.6773 184.116 70.832V75.568C184.116 75.7173 184.073 75.8347 183.988 75.92C183.902 76.0053 183.79 76.048 183.652 76.048C183.513 76.048 183.404 76.0053 183.324 75.92C183.244 75.8347 183.204 75.7173 183.204 75.568V72.272L181.844 74.848C181.78 74.9653 181.71 75.0533 181.636 75.112C181.561 75.1653 181.473 75.192 181.372 75.192C181.27 75.192 181.182 75.1653 181.108 75.112C181.033 75.0587 180.964 74.9707 180.9 74.848L179.532 72.312V75.568C179.532 75.712 179.489 75.8293 179.404 75.92C179.324 76.0053 179.214 76.048 179.076 76.048C178.937 76.048 178.828 76.0053 178.748 75.92C178.668 75.8347 178.628 75.7173 178.628 75.568V70.832C178.628 70.6773 178.67 70.5547 178.756 70.464C178.846 70.368 178.966 70.32 179.116 70.32C179.324 70.32 179.486 70.4347 179.604 70.664L181.38 74.048L183.148 70.664C183.265 70.4347 183.422 70.32 183.62 70.32ZM186.49 76C186.335 76 186.213 75.9573 186.122 75.872C186.037 75.7867 185.994 75.6667 185.994 75.512V70.848C185.994 70.6933 186.037 70.5733 186.122 70.488C186.213 70.4027 186.335 70.36 186.49 70.36H189.378C189.533 70.36 189.653 70.3947 189.738 70.464C189.823 70.5333 189.866 70.632 189.866 70.76C189.866 70.8933 189.823 70.9973 189.738 71.072C189.653 71.1413 189.533 71.176 189.378 71.176H187.002V72.728H189.218C189.373 72.728 189.493 72.7627 189.578 72.832C189.663 72.9013 189.706 73.0027 189.706 73.136C189.706 73.264 189.663 73.3627 189.578 73.432C189.493 73.5013 189.373 73.536 189.218 73.536H187.002V75.184H189.378C189.533 75.184 189.653 75.2213 189.738 75.296C189.823 75.3653 189.866 75.4667 189.866 75.6C189.866 75.728 189.823 75.8267 189.738 75.896C189.653 75.9653 189.533 76 189.378 76H186.49ZM193.235 76.072C192.824 76.072 192.435 76.0187 192.067 75.912C191.704 75.8 191.408 75.6507 191.179 75.464C191.056 75.3733 190.995 75.2453 190.995 75.08C190.995 74.968 191.027 74.872 191.091 74.792C191.16 74.7067 191.24 74.664 191.331 74.664C191.427 74.664 191.536 74.7013 191.659 74.776C191.888 74.9413 192.128 75.0613 192.379 75.136C192.63 75.2107 192.907 75.248 193.211 75.248C193.6 75.248 193.899 75.1813 194.107 75.048C194.315 74.9093 194.419 74.7093 194.419 74.448C194.419 74.2453 194.32 74.0907 194.123 73.984C193.931 73.872 193.608 73.7653 193.155 73.664C192.686 73.5627 192.304 73.4453 192.011 73.312C191.718 73.1787 191.496 73.008 191.347 72.8C191.198 72.592 191.123 72.328 191.123 72.008C191.123 71.6773 191.216 71.3813 191.403 71.12C191.59 70.8587 191.848 70.656 192.179 70.512C192.515 70.3627 192.891 70.288 193.307 70.288C194.07 70.288 194.691 70.4907 195.171 70.896C195.24 70.9547 195.288 71.0133 195.315 71.072C195.347 71.1253 195.363 71.1947 195.363 71.28C195.363 71.392 195.328 71.4907 195.259 71.576C195.195 71.656 195.118 71.696 195.027 71.696C194.974 71.696 194.923 71.688 194.875 71.672C194.832 71.656 194.774 71.6267 194.699 71.584C194.48 71.424 194.267 71.3067 194.059 71.232C193.856 71.152 193.606 71.112 193.307 71.112C192.944 71.112 192.656 71.1867 192.443 71.336C192.235 71.48 192.131 71.6827 192.131 71.944C192.131 72.1627 192.224 72.3307 192.411 72.448C192.598 72.5653 192.915 72.6747 193.363 72.776C193.838 72.8827 194.222 73.0027 194.515 73.136C194.814 73.264 195.04 73.4293 195.195 73.632C195.355 73.8347 195.435 74.088 195.435 74.392C195.435 74.7227 195.342 75.016 195.155 75.272C194.974 75.5227 194.715 75.72 194.379 75.864C194.048 76.0027 193.667 76.072 193.235 76.072Z" fill="#F14B2C"/>
</svg>
